<?xml version="1.0" standalone="no"?><!DOCTYPE svg PUBLIC "-//W3C//DTD SVG 1.1//EN" "http://www.w3.org/Graphics/SVG/1.1/DTD/svg11.dtd"><svg t="1545792857828" class="icon" style="" viewBox="0 0 1024 1024" version="1.1" xmlns="http://www.w3.org/2000/svg" p-id="1360" xmlns:xlink="http://www.w3.org/1999/xlink" width="32" height="32"><defs><style type="text/css"></style></defs><path d="M599.893333 870.4H424.96v-34.133333h174.933333v34.133333zM699.733333 770.56h-34.133333V768h34.133333v2.56z m-341.333333 0h-34.133333V768h34.133333v2.56z m341.333333-5.12h-34.133333V723.626667c0-6.0416 3.191467-11.6224 8.379733-14.677334a343.261867 343.261867 0 0 0 67.447467-52.855466C804.369067 593.152 836.266667 515.959467 836.266667 426.666667s-31.8976-166.485333-94.839467-229.4272C678.485333 134.314667 601.2928 102.4 512 102.4s-166.485333 31.914667-229.4272 94.839467S187.733333 337.373867 187.733333 426.666667s31.914667 166.485333 94.839467 229.4272a343.3984 343.3984 0 0 0 67.447467 52.855466 17.066667 17.066667 0 0 1 8.379733 14.677334v41.796266h-34.133333V733.184a380.0576 380.0576 0 0 1-65.826134-52.974933C188.8768 610.6624 153.6 525.346133 153.6 426.666667s35.2768-183.995733 104.840533-253.559467S413.320533 68.266667 512 68.266667s183.995733 35.2768 253.559467 104.840533S870.4 327.9872 870.4 426.666667s-35.259733 183.978667-104.840533 253.559466A382.293333 382.293333 0 0 1 699.733333 733.201067v32.238933z" p-id="1361" fill="#0c5460"></path><path d="M424.96 870.4h-0.426667c-27.170133-0.682667-50.8928-10.990933-70.519466-30.600533-19.063467-19.0464-29.064533-42.205867-29.7472-68.795734-0.017067-0.580267 0-1.143467 0.034133-1.723733L324.266667 768v-2.56a17.066667 17.066667 0 1 1 34.133333 0V768a15.735467 15.735467 0 0 1-0.0512 1.28l0.034133 0.853333c0.4608 17.800533 6.912 32.699733 19.7632 45.533867 13.4144 13.397333 28.859733 20.155733 47.240534 20.599467a17.066667 17.066667 0 0 1-0.426667 34.133333z m174.933333 0a17.083733 17.083733 0 0 1-0.426666-34.133333c17.681067-0.443733 32.494933-7.1168 45.312-20.3776 13.704533-13.243733 20.360533-28.074667 20.821333-45.755734l0.0512-0.853333A15.735467 15.735467 0 0 1 665.6 768v-2.56a17.066667 17.066667 0 1 1 34.133333 0V768a16.042667 16.042667 0 0 1-0.0512 1.28c0.0512 0.5632 0.068267 1.143467 0.0512 1.723733-0.682667 26.709333-11.042133 49.937067-30.8224 69.0176-18.653867 19.336533-41.864533 29.696-68.590933 30.378667h-0.426667zM597.333333 972.8H426.666667a34.133333 34.133333 0 0 1 0-68.266667h170.666666a34.133333 34.133333 0 0 1 0 68.266667z" p-id="1362" fill="#0c5460"></path></svg>