<?xml version="1.0" standalone="no"?><!DOCTYPE svg PUBLIC "-//W3C//DTD SVG 1.1//EN" "http://www.w3.org/Graphics/SVG/1.1/DTD/svg11.dtd"><svg t="1545792928672" class="icon" style="" viewBox="0 0 1024 1024" version="1.1" xmlns="http://www.w3.org/2000/svg" p-id="1604" xmlns:xlink="http://www.w3.org/1999/xlink" width="32" height="32"><defs><style type="text/css"></style></defs><path d="M426.666667 913.066667H256a17.066667 17.066667 0 0 1-16.196267-11.6736L158.122667 656.349867c-22.7328-2.6624-42.9056-12.680533-60.1088-29.883734C78.267733 606.737067 68.266667 582.587733 68.266667 554.666667V382.293333c0.682667-27.460267 10.615467-51.131733 29.525333-70.724266 19.985067-19.3536 43.656533-29.2864 70.741333-29.952h339.131734L758.510933 113.834667A16.930133 16.930133 0 0 1 768 110.933333h85.333333a17.066667 17.066667 0 0 1 17.066667 17.066667v240.247467c20.7872 3.310933 39.150933 12.834133 54.7328 28.433066C945.425067 416.989867 955.733333 441.429333 955.733333 469.333333c0 28.023467-10.359467 52.258133-30.805333 72.004267a92.637867 92.637867 0 0 1-33.8432 23.261867c-6.5024 2.6624-13.431467 4.608-20.6848 5.7856V810.666667a17.066667 17.066667 0 0 1-17.066667 17.066666h-85.333333a17.066667 17.066667 0 0 1-9.489067-2.884266L507.665067 657.066667H443.733333v68.266666a17.066667 17.066667 0 0 1-17.066666 17.066667h-32.7168l48.930133 148.258133A17.015467 17.015467 0 0 1 426.666667 913.066667z m-158.3616-34.133334h134.7584l-73.949867-221.866666h-134.7584l73.949867 221.866666z m504.8832-85.333333H836.266667v-648.533333h-63.0784l-250.845867 167.7824a17.066667 17.066667 0 0 1-9.489067 2.884266H168.96c-18.090667 0.4608-33.604267 6.980267-47.0016 19.950934-12.578133 13.038933-19.0976 28.552533-19.5584 47.035733V554.666667c0 18.7904 6.4512 34.389333 19.746133 47.6672C136.021333 616.192 151.876267 622.933333 170.666667 622.933333H512.853333a17.066667 17.066667 0 0 1 9.489067 2.884267L773.188267 793.6z m-390.6048-85.333333H409.6v-51.2h-44.4416l17.425067 51.2zM870.4 403.063467v132.488533c2.7648-0.699733 5.444267-1.5872 8.0384-2.645333 8.072533-3.140267 15.428267-8.311467 22.186667-15.5136C914.926933 503.517867 921.6 488.004267 921.6 469.333333c0-18.7904-6.741333-34.645333-20.599467-48.520533-9.028267-9.045333-19.1488-14.916267-30.600533-17.749333z" p-id="1605" fill="#0c5460"></path><path d="M392.533333 298.666667h68.266667v341.333333h-68.266667z" p-id="1606" fill="#0c5460"></path></svg>